<?xml version="1.0" encoding="UTF-8"?>
<svg id="Capa_1" xmlns="http://www.w3.org/2000/svg" viewBox="0 0 831.46 320.3">
  <defs>
    <style>
      .cls-1 {
        fill: #003b54;
      }

      .cls-2 {
        fill: #35beec;
      }
    </style>
  </defs>
  <g>
    <path class="cls-1" d="M65.1,278.96c-13.58-5.94-24.24-14.36-31.99-25.27-7.76-10.91-11.63-23.63-11.63-38.18h44.35c.97,10.91,5.27,19.88,12.91,26.91s18.36,10.54,32.17,10.54,25.45-3.45,33.44-10.36c8-6.9,12-15.81,12-26.72,0-8.48-2.48-15.39-7.45-20.72-4.97-5.33-11.15-9.45-18.55-12.36-7.4-2.91-17.63-6.06-30.72-9.45-16.49-4.36-29.87-8.78-40.18-13.27-10.3-4.48-19.09-11.45-26.36-20.9-7.27-9.45-10.91-22.05-10.91-37.81,0-14.54,3.64-27.27,10.91-38.18,7.27-10.91,17.45-19.26,30.54-25.08s28.23-8.72,45.44-8.72c24.48,0,44.54,6.12,60.17,18.36,15.63,12.24,24.3,29.03,25.99,50.35h-45.8c-.73-9.21-5.09-17.09-13.09-23.63-8-6.55-18.54-9.82-31.63-9.82-11.88,0-21.58,3.03-29.08,9.09-7.51,6.06-11.27,14.79-11.27,26.18,0,7.76,2.36,14.12,7.09,19.09,4.73,4.97,10.72,8.91,17.99,11.81s17.21,6.06,29.81,9.45c16.72,4.6,30.35,9.21,40.9,13.81,10.54,4.61,19.51,11.7,26.9,21.27,7.39,9.58,11.09,22.36,11.09,38.35,0,12.85-3.46,24.96-10.36,36.36-6.91,11.39-16.97,20.54-30.18,27.45-13.21,6.91-28.78,10.36-46.72,10.36-16.97,0-32.23-2.97-45.81-8.91Z"/>
    <path class="cls-1" d="M428.65,85v200.32h-41.44v-23.63c-6.54,8.24-15.09,14.73-25.63,19.45-10.54,4.73-21.76,7.09-33.63,7.09-15.76,0-29.87-3.27-42.35-9.82-12.48-6.54-22.3-16.23-29.45-29.08-7.15-12.84-10.72-28.36-10.72-46.53v-117.79h41.08v111.61c0,17.94,4.48,31.69,13.45,41.26,8.97,9.58,21.21,14.36,36.72,14.36s27.81-4.79,36.9-14.36c9.09-9.57,13.63-23.32,13.63-41.26v-111.61h41.44Z"/>
    <path class="cls-1" d="M548.81,90.27c10.05-5.69,21.99-8.54,35.81-8.54v42.9h-10.54c-16.24,0-28.54,4.12-36.9,12.36-8.36,8.24-12.54,22.54-12.54,42.9v105.43h-41.44V85h41.44v29.08c6.06-10.18,14.12-18.11,24.18-23.81Z"/>
    <path class="cls-1" d="M804.2,85v200.32h-41.44v-23.63c-6.55,8.24-15.09,14.73-25.63,19.45-10.54,4.73-21.75,7.09-33.63,7.09-15.76,0-29.87-3.27-42.35-9.82-12.49-6.54-22.31-16.23-29.45-29.08-7.15-12.84-10.72-28.36-10.72-46.53v-117.79h41.08v111.61c0,17.94,4.48,31.69,13.45,41.26,8.96,9.58,21.2,14.36,36.72,14.36s27.81-4.79,36.9-14.36c9.09-9.57,13.63-23.32,13.63-41.26v-111.61h41.44Z"/>
  </g>
  <circle class="cls-2" cx="306.36" cy="55.8" r="17.66"/>
  <circle class="cls-2" cx="366.68" cy="55.8" r="17.66"/>
  <circle class="cls-2" cx="682.21" cy="55.8" r="17.66"/>
  <circle class="cls-2" cx="742.54" cy="55.8" r="17.66"/>
</svg>